<svg width="32" height="32" viewBox="0 0 24 24" fill="none" xmlns="http://www.w3.org/2000/svg">
<path d="M10.175 12.1625L10.1625 12.175L12.5 14.5125L14.8375 12.175L14.825 12.1625C15.5125 11.475 15.5125 10.375 14.825 9.6875L12.5 7.35L10.175 9.6875C9.4875 10.375 9.4875 11.475 10.175 12.1625Z" fill="#34A853"/>
<path d="M12.5 2.5C10.5125 2.5 8.6 3.3 7.15 4.7375L9.675 7.2625C10.5125 6.425 11.75 6.25 12.9875 6.675C14.225 7.1 15.1625 8.125 15.525 9.3625H12.5V12.5H19.325C19.4125 11.825 19.5 11.125 19.5 10.425C19.5 6.025 16.4 2.5 12.5 2.5Z" fill="#4285F4"/>
<path d="M4.7375 7.15C3.3 8.6 2.5 10.5125 2.5 12.5C2.5 16.9 6.025 20.425 10.425 20.425C12.3375 20.425 14.1625 19.725 15.525 18.5L13 16C12.075 16.75 10.8375 17.25 9.5 16.9C8.1625 16.5375 7.1375 15.5125 6.675 14.175H2.8875L2.875 14.2C1.725 16.4875 2.5 19.2625 4.7375 20.425" fill="#FBBC04"/>
<path d"M20.425 14.2C21.575 11.9125 20.8 9.1375 18.575 7.975L15.525 9.3625C16.8625 9.825 17.8875 10.85 18.35 12.1875H20.425V14.2Z" fill="#EA4335"/>
</svg>