<svg xmlns="http://www.w3.org/2000/svg" width="40" height="40" viewBox="0 0 40 40" fill="none">
<path d="M25.432 10.512C24.336 9.408 22.896 8.64 21.216 8.256C18.444 7.644 15.468 8.1 12.924 9.516C10.38 10.932 8.496 13.2 7.644 15.912C7.224 17.244 7.056 18.636 7.128 20.028C7.224 21.6 7.632 23.124 8.328 24.516C8.892 25.68 9.756 26.736 10.824 27.564C12.996 29.208 15.744 29.928 18.528 29.58C21.312 29.232 23.832 27.864 25.632 25.776C26.328 24.96 26.868 24.012 27.24 22.98C27.504 22.248 27.684 21.468 27.792 20.676C27.936 19.644 27.852 18.6 27.528 17.616C27.276 16.824 26.892 16.08 26.4 15.408L25.432 10.512Z" fill="#5F259F"></path>
<path d="M32.9436 18.276C32.7996 17.652 32.5476 17.064 32.1996 16.524L26.3916 15.408C26.8836 16.08 27.2676 16.824 27.5196 17.616C27.8436 18.6 27.9276 19.644 27.7836 20.676C27.6756 21.468 27.4956 22.248 27.2316 22.98C26.8596 24.012 26.3196 24.96 25.6236 25.776C24.3636 27.204 22.7556 28.26 20.9796 28.788C20.1516 29.016 19.2996 29.136 18.4476 29.136C17.5836 29.136 16.7316 29.016 15.9036 28.776C14.0196 28.224 12.3556 27.12 11.0796 25.596L10.8276 27.564C11.6196 28.14 12.5076 28.608 13.4556 28.944C14.4036 29.28 15.3996 29.472 16.4196 29.52C16.9716 29.544 17.5236 29.544 18.0756 29.52C18.3396 29.508 18.6036 29.484 18.8676 29.448C19.0476 29.424 21.6516 28.908 23.8236 27.864C25.9956 26.82 27.7836 25.2 28.9116 23.184C29.4396 22.248 29.8476 21.24 30.1116 20.172C30.2916 19.464 30.3876 18.732 30.3876 18C30.3876 17.16 30.2676 16.332 30.0396 15.54L28.9116 12.228C29.6076 12.552 30.2316 13.008 30.7636 13.56C31.5156 14.328 32.0916 15.264 32.4516 16.296C32.7516 17.124 32.9196 17.988 32.9436 18.876V18.276Z" fill="#AE79F1"></path>
</svg>