<svg xmlns="http://www.w3.org/2000/svg" viewBox="0 0 258 258" preserveAspectRatio="xMidYMid"><path fill="#022875" d="M129 0C57.853 0 0 57.853 0 129s57.853 129 129 129 129-57.853 129-129S200.147 0 129 0Zm46.213 145.457-41.517 71.933c-1.571 2.721-5.717 2.457-6.9-0.44l-2.073-5.068-15.707-38.406-8.918 19.333c-1.571 3.407-7.464 1.332-6.059-2.133l42.492-104.557c1.373-3.376 6.177-3.414 7.604-0.06l32.179 55.733c1.789 3.1-0.453 7.032-4.032 7.032l-32.969-0.001c-3.111-0.001-5.056-3.368-3.501-6.062l5.051-8.749-19.982 45.394 13.921-29.617c1.284-2.731 5.251-2.716 6.514 0.024l26.965 47.909c0.916 1.629 3.235 1.705 4.264 0.141l15.196-23.111c2.181-3.316 7.279-2.288 8.083 1.631l5.449 26.657c0.697 3.41-3.693 5.483-5.908 2.789l-19.248-23.414c-1.637-1.996-4.706-1.536-5.716 0.852Z"/></svg>
